<svg xmlns="http://www.w3.org/2000/svg" width="134.357" height="138.492" viewBox="0 0 134.357 138.492">
  <g id="Souce_Logo" transform="translate(-69.37 -63.823)">
    <path id="Path_1" data-name="Path 1" d="M91.673,380.938a7.79,7.79,0,0,1-2.908,6.333,11.253,11.253,0,0,1-7.375,2.384,19.771,19.771,0,0,1-6.207-1.067,18.282,18.282,0,0,1-5.813-3.154l3.276-4.671a14.275,14.275,0,0,0,8.892,3.228,4.03,4.03,0,0,0,2.283-.569,1.752,1.752,0,0,0,.844-1.517,2.185,2.185,0,0,0-1.168-1.737,13.326,13.326,0,0,0-3.377-1.491q-2.215-.7-3.377-1.19a18.734,18.734,0,0,1-2.655-1.443,6.159,6.159,0,0,1-3.031-5.586,7.329,7.329,0,0,1,2.979-6.036,12.137,12.137,0,0,1,7.7-2.332,16.805,16.805,0,0,1,9.439,3.18l-2.782,4.965a12.212,12.212,0,0,0-6.929-2.384c-2.306,0-3.451.629-3.451,1.886a1.818,1.818,0,0,0,1.093,1.64,21.986,21.986,0,0,0,3.622,1.391q2.533.792,3.6,1.216a17.628,17.628,0,0,1,2.559,1.317q2.778,1.69,2.782,5.638" transform="translate(0 -187.341)" fill="#1d1d1b"/>
    <path id="Path_2" data-name="Path 2" d="M160.8,375.9a13.211,13.211,0,0,1-4.02,9.785,14.849,14.849,0,0,1-20.217,0,13.936,13.936,0,0,1,0-19.592,14.778,14.778,0,0,1,20.217,0,13.3,13.3,0,0,1,4.02,9.807m-20.763,0a7.661,7.661,0,0,0,1.863,5.341,6.547,6.547,0,0,0,9.536,0A7.655,7.655,0,0,0,153.3,375.9a7.744,7.744,0,0,0-1.863-5.363,6.491,6.491,0,0,0-9.536,0,7.75,7.75,0,0,0-1.863,5.363" transform="translate(-39.677 -187.341)" fill="#1d1d1b"/>
    <path id="Path_3" data-name="Path 3" d="M232.082,377.694v-14.4h7.5v26.721h-7.5v-3.526a8.46,8.46,0,0,1-7.178,3.924,10.45,10.45,0,0,1-7.375-2.756q-2.979-2.756-2.979-8.171V363.29h7.5v14.553q0,6.159,4.522,6.159a5.335,5.335,0,0,0,3.872-1.614,6.308,6.308,0,0,0,1.636-4.693" transform="translate(-91.187 -188.094)" fill="#1d1d1b"/>
    <path id="Path_4" data-name="Path 4" d="M303.015,383.044q3.727,0,6.705-3.726l4.422,4.969q-5.166,5.367-11.176,5.363a14.485,14.485,0,0,1-10.157-3.8,13.968,13.968,0,0,1,.048-19.919,14.235,14.235,0,0,1,9.956-3.849,15.574,15.574,0,0,1,5.839,1.19,14.781,14.781,0,0,1,5.188,3.529l-3.872,5.065a8.769,8.769,0,0,0-3.154-2.384,8.933,8.933,0,0,0-3.7-.844,7.245,7.245,0,0,0-5.043,1.912,6.8,6.8,0,0,0-2.112,5.315,6.73,6.73,0,0,0,2.112,5.292,7.165,7.165,0,0,0,4.943,1.889" transform="translate(-137.735 -187.335)" fill="#1d1d1b"/>
    <path id="Path_5" data-name="Path 5" d="M383.145,385.382a14.943,14.943,0,0,1-10.6,4.273,14.066,14.066,0,0,1-10.056-3.749,13.173,13.173,0,0,1-3.976-10.06,12.968,12.968,0,0,1,4.05-10.034,13.655,13.655,0,0,1,9.562-3.723,13.829,13.829,0,0,1,9.365,3.328,11.445,11.445,0,0,1,3.849,9.138v3.972H365.866a5.31,5.31,0,0,0,2.284,3.578,7.3,7.3,0,0,0,4.374,1.391,8.578,8.578,0,0,0,6.456-2.633Zm-7.152-15.843a5.658,5.658,0,0,0-3.752-1.29,6.694,6.694,0,0,0-4.046,1.343,5.118,5.118,0,0,0-2.135,3.626h11.722a5.3,5.3,0,0,0-1.789-3.678" transform="translate(-181.608 -187.341)" fill="#1d1d1b"/>
    <path id="Path_6" data-name="Path 6" d="M146.266,110.161c0-6.728-.019-13.095,0-19.462.026-7.111,3.433-10.655,10.424-10.707,8.922-.063,17.844.03,26.762-.037a11.331,11.331,0,0,1,8.848,3.786,130.314,130.314,0,0,0,9.342,9.294c3.924,3.418,5.895,7.4,5.236,12.645a41.625,41.625,0,0,0-.026,4.716c2.525,0,4.63-.112,6.72.022,5.887.372,9.216,3.868,9.3,9.792.1,5.854.149,11.707.108,17.561-.093,14.448-9.762,24.9-24.17,25.4-12.087.424-24.2.112-36.3.119-3.451,0-6.943.312-10.346-.093-16.241-1.949-24.393-17.245-21.433-31.738h5.735c.149,2.276.424,4.478.417,6.679-.041,10.912,8.212,18.71,19.235,18.6,12.2-.13,24.408.167,36.61.216,6.955.026,13.779-.022,18.863-6.233a20.164,20.164,0,0,0,4.857-12.708c.108-4.652-.059-9.316-.078-13.972-.022-6.523-.617-7.118-7.062-6.921-.651.019-1.3.108-2.414.2,0,5.869-.193,11.685.045,17.479.368,8.915-3.05,12.563-12.038,12.585-12.358.03-24.713.193-37.071.242-8.286.03-12.009-4.121-11.655-12.455.219-5.177.067-10.369.071-15.557,0-.651-.074-1.3-.152-2.548-2.31,0-4.526.112-6.728-.022-5.59-.335-9.045-3.916-9.127-9.547-.089-5.991-.059-11.983-.019-17.978.108-14.367,10.305-25.156,24.7-25.479,14.374-.327,28.763-.257,43.141-.022,14.341.234,26.621,11.384,24.683,30.165-.086.833-2.053,1.778-3.3,2.109-1.726.461-3.087-.078-3.1-2.388a47.465,47.465,0,0,0-.517-8.331c-1.6-8.639-8.126-14.623-16.843-14.783-14.906-.275-29.83-.3-44.736-.007-9.978.2-17.238,8.048-17.487,18.182-.13,5.058-.033,10.119-.019,15.181.015,5.556.759,6.3,6.17,6.229.93-.03,1.852-.126,3.34-.219m37.544-23.437c-8.859,0-17.212-.022-25.568.007-4.474.015-5.378.889-5.389,5.344-.045,14.493.015,28.99-.1,43.479-.026,3.5,1.212,5.143,4.85,5.136,6.735-.022,13.474.253,20.213.268,5.943.011,11.882-.216,17.825-.242,3.25-.015,4.481-1.681,4.47-4.742-.037-10.755-.026-21.507-.056-32.259,0-.2-.32-.39-.673-.8-3.537,0-7.252-.082-10.964.026-3.2.093-4.667-1.335-4.626-4.515.052-3.7.015-7.408.015-11.708" transform="translate(-38.169)" fill="#1d1d1b" fill-rule="evenodd"/>
    <path id="Path_8" data-name="Path 8" d="M230.929,188.865c3.585,0,7.174.126,10.748-.041,2.652-.123,3.451.93,3.407,3.488-.037,2.339-.7,3.347-3.183,3.31-7.431-.108-14.865-.134-22.3.011-2.879.056-3.146-1.38-3.2-3.7-.063-2.577,1.108-3.165,3.373-3.1,3.715.112,7.434.03,11.15.03" transform="translate(-92.351 -78.507)" fill="#1d1d1b" fill-rule="evenodd"/>
    <path id="Path_9" data-name="Path 9" d="M230.406,233.356c-3.593,0-7.185-.1-10.77.037-2.4.093-3.314-.725-3.25-3.2.059-2.239.476-3.448,3.087-3.407q11.168.19,22.34,0c2.443-.037,3.276.822,3.25,3.243-.026,2.257-.495,3.474-3.091,3.366-3.849-.16-7.71-.041-11.566-.041" transform="translate(-92.338 -102.357)" fill="#1d1d1b" fill-rule="evenodd"/>
    <path id="Path_10" data-name="Path 10" d="M228.269,151.435v6.486c-2.767,0-5.374-.074-7.977.019-2.347.086-4.005-.015-4-3.247,0-3.184,1.573-3.4,3.976-3.288,2.5.119,5.006.03,8,.03" transform="translate(-92.28 -54.998)" fill="#1d1d1b" fill-rule="evenodd"/>
  </g>
</svg>
